<svg width="33" height="33" viewBox="0 0 33 33" fill="none" xmlns="http://www.w3.org/2000/svg">
<rect x="0.726074" y="0.453613" width="32" height="32" fill="black"/>
<path d="M21.2261 14.6255C22.1844 14.9484 22.8979 15.4797 23.3667 16.2192C23.8354 16.9484 24.0698 18.6672 24.0698 21.3755C24.0698 23.3859 23.8407 24.9484 23.3823 26.063C22.924 27.1672 22.1323 28.0109 21.0073 28.5942C19.8823 29.1672 18.4396 29.4536 16.6792 29.4536C14.6792 29.4536 13.1063 29.1203 11.9604 28.4536C10.825 27.7765 10.075 26.9536 9.71045 25.9849C9.35628 25.0057 9.1792 23.313 9.1792 20.9067V18.9067H15.4917V23.0161C15.4917 24.1099 15.5542 24.8078 15.6792 25.1099C15.8146 25.4015 16.1063 25.5474 16.5542 25.5474C17.0438 25.5474 17.3667 25.3599 17.5229 24.9849C17.6792 24.6099 17.7573 23.6307 17.7573 22.0474V20.2974C17.7573 19.3286 17.6479 18.6203 17.4292 18.1724C17.2104 17.7244 16.8875 17.4328 16.4604 17.2974C16.0334 17.1515 15.2052 17.0682 13.9761 17.0474V13.3755C15.4761 13.3755 16.4032 13.3182 16.7573 13.2036C17.1115 13.089 17.3667 12.839 17.5229 12.4536C17.6792 12.0682 17.7573 11.464 17.7573 10.6411V9.23486C17.7573 8.34945 17.6636 7.76611 17.4761 7.48486C17.299 7.20361 17.0177 7.06299 16.6323 7.06299C16.1948 7.06299 15.8927 7.21403 15.7261 7.51611C15.5698 7.80778 15.4917 8.43799 15.4917 9.40674V11.4849H9.1792V9.32861C9.1792 6.91195 9.73128 5.28174 10.8354 4.43799C11.9396 3.58382 13.6948 3.15674 16.1011 3.15674C19.1115 3.15674 21.1532 3.74528 22.2261 4.92236C23.299 6.09945 23.8354 7.73486 23.8354 9.82861C23.8354 11.2453 23.6427 12.2713 23.2573 12.9067C22.8719 13.5317 22.1948 14.1047 21.2261 14.6255Z" fill="#FFDD00"/>
</svg>
